<?xml version="1.0" standalone="no"?>
<!DOCTYPE svg PUBLIC "-//W3C//DTD SVG 20010904//EN"
 "http://www.w3.org/TR/2001/REC-SVG-20010904/DTD/svg10.dtd">
<svg version="1.0" xmlns="http://www.w3.org/2000/svg"
 width="107.000000pt" height="107.000000pt" viewBox="0 0 107.000000 107.000000"
 preserveAspectRatio="xMidYMid meet">
<metadata>
Created by potrace 1.14, written by Peter Selinger 2001-2017
</metadata>
<g transform="translate(0.000000,107.000000) scale(0.100000,-0.100000)"
fill="#000000" stroke="none">
<path d="M395 1051 c-180 -51 -332 -205 -378 -383 -31 -120 -13 -271 46 -382
138 -259 463 -360 721 -223 83 43 185 146 225 224 108 215 70 456 -99 623
-109 108 -222 156 -370 157 -52 1 -108 -6 -145 -16z m342 -107 c283 -137 341
-529 109 -742 -89 -82 -191 -122 -312 -122 -397 0 -602 473 -332 766 135 146
354 186 535 98z"/>
<path d="M294 709 c-2 -4 31 -111 73 -237 l78 -230 35 -4 c19 -2 55 -1 79 2
l44 5 78 232 c43 128 74 234 71 236 -17 8 -115 -1 -121 -12 -4 -6 -29 -83 -56
-171 -27 -88 -51 -157 -55 -153 -4 4 -14 33 -23 63 -52 184 -81 270 -91 271
-51 5 -108 3 -112 -2z"/>
</g>
</svg>
